<svg width="24" height="23" viewBox="0 0 24 23" fill="none" xmlns="http://www.w3.org/2000/svg">
<path fill-rule="evenodd" clip-rule="evenodd" d="M23.8314 11.4744C23.8314 5.13786 18.4959 0 11.9157 0C5.33547 0 0 5.13786 0 11.4744C0 17.2013 4.35668 21.9483 10.0539 22.8099V14.7922H7.0276V11.4744H10.0539V8.94643C10.0539 6.07118 11.8332 4.48167 14.5547 4.48167C15.8585 4.48167 17.2224 4.70603 17.2224 4.70603V7.53006H15.7192C14.2398 7.53006 13.777 8.4142 13.777 9.32293V11.4744H17.0815L16.5538 14.7922H13.7775V22.811C19.4747 21.9499 23.8314 17.2029 23.8314 11.4744V11.4744Z" fill="white"/>
</svg>
