<svg width="24" height="23" viewBox="0 0 24 23" fill="none" xmlns="http://www.w3.org/2000/svg">
<path d="M16.8804 1.91223C18.1961 1.91601 19.4567 2.42097 20.387 3.31683C21.3173 4.21268 21.8417 5.42663 21.8456 6.69356V16.2552C21.8417 17.5221 21.3173 18.7361 20.387 19.6319C19.4567 20.5278 18.1961 21.0328 16.8804 21.0365H6.951C5.63535 21.0328 4.37471 20.5278 3.4444 19.6319C2.51408 18.7361 1.9897 17.5221 1.98577 16.2552V6.69356C1.9897 5.42663 2.51408 4.21268 3.4444 3.31683C4.37471 2.42097 5.63535 1.91601 6.951 1.91223H16.8804ZM16.8804 0H6.951C3.12787 0 0 3.01202 0 6.69356V16.2552C0 19.9367 3.12787 22.9488 6.951 22.9488H16.8804C20.7035 22.9488 23.8314 19.9367 23.8314 16.2552V6.69356C23.8314 3.01202 20.7035 0 16.8804 0Z" fill="white"/>
<path d="M18.3695 6.69355C18.0749 6.69355 17.787 6.60943 17.542 6.45183C17.2971 6.29422 17.1062 6.07021 16.9934 5.80813C16.8807 5.54605 16.8512 5.25766 16.9087 4.97943C16.9662 4.70121 17.108 4.44564 17.3163 4.24505C17.5246 4.04446 17.79 3.90785 18.079 3.85251C18.3679 3.79717 18.6674 3.82557 18.9395 3.93413C19.2117 4.04269 19.4443 4.22653 19.608 4.4624C19.7716 4.69827 19.859 4.97557 19.859 5.25925C19.8594 5.44772 19.8212 5.63441 19.7465 5.80861C19.6718 5.98281 19.5621 6.14109 19.4237 6.27436C19.2853 6.40762 19.1209 6.51326 18.94 6.58519C18.7591 6.65713 18.5652 6.69395 18.3695 6.69355ZM11.9154 7.6494C12.701 7.6494 13.4689 7.87373 14.1221 8.29403C14.7753 8.71432 15.2845 9.3117 15.5851 10.0106C15.8857 10.7095 15.9644 11.4786 15.8111 12.2206C15.6579 12.9626 15.2796 13.6441 14.7241 14.179C14.1685 14.714 13.4608 15.0783 12.6903 15.2258C11.9198 15.3734 11.1211 15.2977 10.3953 15.0082C9.66952 14.7187 9.04917 14.2284 8.61271 13.5994C8.17625 12.9704 7.94329 12.2309 7.94329 11.4744C7.94442 10.4603 8.36327 9.48799 9.10793 8.77091C9.8526 8.05382 10.8623 7.65049 11.9154 7.6494ZM11.9154 5.73718C10.737 5.73718 9.58513 6.07366 8.60537 6.70407C7.6256 7.33448 6.86197 8.23051 6.41104 9.27884C5.9601 10.3272 5.84212 11.4807 6.072 12.5936C6.30189 13.7065 6.86932 14.7288 7.70254 15.5312C8.53576 16.3335 9.59734 16.88 10.7531 17.1013C11.9088 17.3227 13.1067 17.2091 14.1953 16.7748C15.284 16.3406 16.2145 15.6053 16.8691 14.6618C17.5238 13.7183 17.8732 12.6091 17.8732 11.4744C17.8732 9.95277 17.2455 8.49349 16.1282 7.41756C15.0109 6.34163 13.4955 5.73718 11.9154 5.73718Z" fill="white"/>
</svg>
