<svg width="26" height="21" viewBox="0 0 26 21" fill="none" xmlns="http://www.w3.org/2000/svg">
<path d="M25.5336 2.42039C24.5758 2.83656 23.5624 3.11074 22.5255 3.23427C23.6153 2.59613 24.4348 1.58233 24.8304 0.383014C23.8001 0.985497 22.6747 1.40823 21.5025 1.6331C21.0089 1.11579 20.4153 0.704261 19.7577 0.423519C19.1001 0.142777 18.3923 -0.0013125 17.6773 9.00828e-06C14.7824 9.00828e-06 12.4397 2.30868 12.4397 5.15461C12.4376 5.55047 12.483 5.94515 12.5748 6.33022C10.499 6.23291 8.46628 5.70337 6.60682 4.77547C4.74736 3.84757 3.10206 2.54176 1.77618 0.941562C1.31103 1.72572 1.06504 2.62042 1.0639 3.53216C1.0639 5.31952 1.99641 6.89941 3.40449 7.82501C2.57024 7.80521 1.75309 7.58441 1.02241 7.18135V7.24518C1.02241 9.74535 2.83104 11.8253 5.22482 12.2987C4.77468 12.4187 4.31081 12.4795 3.84494 12.4796C3.51438 12.4802 3.18456 12.4481 2.8603 12.3838C3.52577 14.4318 5.46261 15.9213 7.75691 15.9639C5.89262 17.4006 3.60377 18.1772 1.25008 18.1715C0.8323 18.1708 0.414903 18.146 0 18.097C2.39441 19.6259 5.17772 20.4347 8.01863 20.4269C17.6661 20.4269 22.9367 12.57 22.9367 5.75572C22.9367 5.5323 22.9308 5.30888 22.9202 5.09078C23.9432 4.3631 24.8282 3.45881 25.5336 2.42039V2.42039Z" fill="white"/>
</svg>
