<svg width="27" height="22" viewBox="0 0 27 22" fill="none" xmlns="http://www.w3.org/2000/svg">
<path d="M26.267 3.20688C25.3092 3.62306 24.2958 3.89724 23.2589 4.02077C24.3487 3.38263 25.1682 2.36883 25.5638 1.16951C24.5335 1.772 23.4081 2.19473 22.2359 2.4196C21.7423 1.90229 21.1487 1.49076 20.4911 1.21002C19.8335 0.929276 19.1257 0.785187 18.4107 0.786508C15.5158 0.786508 13.1731 3.09517 13.1731 5.94111C13.171 6.33697 13.2164 6.73165 13.3082 7.11672C11.2323 7.01941 9.19968 6.48986 7.34022 5.56197C5.48076 4.63407 3.83546 3.32825 2.50958 1.72806C2.04443 2.51222 1.79843 3.40692 1.7973 4.31866C1.7973 6.10602 2.72981 7.68591 4.13788 8.61151C3.30364 8.59171 2.48649 8.37091 1.75581 7.96785V8.03168C1.75581 10.5318 3.56444 12.6118 5.95822 13.0852C5.50808 13.2052 5.04421 13.266 4.57834 13.2661C4.24777 13.2667 3.91796 13.2346 3.5937 13.1703C4.25917 15.2183 6.196 16.7078 8.49031 16.7504C6.62602 18.1871 4.33716 18.9637 1.98348 18.958C1.5657 18.9573 1.1483 18.9325 0.733398 18.8835C3.12781 20.4124 5.91111 21.2212 8.75203 21.2134C18.3995 21.2134 23.6701 13.3565 23.6701 6.54222C23.6701 6.3188 23.6642 6.09538 23.6536 5.87728C24.6766 5.1496 25.5616 4.24531 26.267 3.20688Z" fill="white"/>
</svg>
