<?xml version="1.0" standalone="no"?>
<!DOCTYPE svg PUBLIC "-//W3C//DTD SVG 20010904//EN"
 "http://www.w3.org/TR/2001/REC-SVG-20010904/DTD/svg10.dtd">
<svg version="1.0" xmlns="http://www.w3.org/2000/svg"
 width="624.000000pt" height="624.000000pt" viewBox="0 0 624.000000 624.000000"
 preserveAspectRatio="xMidYMid meet">
<metadata>
Created by potrace 1.14, written by Peter Selinger 2001-2017
</metadata>
<g transform="translate(0.000000,624.000000) scale(0.100000,-0.100000)"
fill="#000000" stroke="none">
<path d="M1630 5362 c-5 -20 -15 -64 -21 -97 -73 -411 -68 -388 -87 -380 -10
4 -37 13 -62 20 -47 13 -71 22 -183 62 -37 14 -73 23 -80 20 -7 -2 -21 -40
-31 -83 -9 -44 -26 -110 -37 -149 -10 -38 -19 -79 -19 -90 0 -11 -9 -47 -19
-80 l-19 -60 -70 3 -71 4 -6 -39 c-3 -21 -15 -65 -26 -99 -10 -33 -19 -70 -19
-81 0 -11 -11 -55 -25 -97 -14 -42 -25 -83 -25 -92 0 -8 -10 -49 -21 -92 -78
-284 -101 -369 -110 -417 -4 -22 -17 -74 -29 -115 -25 -87 -65 -240 -102 -385
-5 -22 -18 -71 -28 -110 -10 -38 -31 -117 -45 -175 -15 -58 -38 -143 -50 -190
-42 -151 -58 -214 -66 -255 -7 -38 -28 -114 -70 -256 -10 -36 -19 -74 -19 -84
0 -10 -11 -55 -24 -99 -14 -45 -29 -99 -34 -121 -15 -66 -33 -135 -58 -225
-12 -47 -32 -123 -44 -170 -23 -91 -59 -230 -90 -345 -11 -38 -21 -84 -24
-101 l-5 -32 62 18 c34 10 82 23 107 29 98 23 177 43 230 59 30 8 75 19 100
22 25 4 81 17 125 28 383 99 820 167 1155 179 272 10 623 -42 865 -129 17 -5
51 -16 76 -23 25 -7 68 -22 95 -33 27 -11 77 -31 112 -44 l62 -23 1 -65 c1
-36 4 -90 7 -120 l7 -55 20 21 c11 12 31 35 45 53 14 17 30 31 36 31 6 0 33
-28 60 -62 l49 -63 3 131 3 130 32 13 c17 7 59 22 92 33 33 11 65 24 70 28 6
5 29 13 50 18 22 6 60 17 85 25 99 35 187 60 230 67 25 4 79 15 120 24 377 79
901 46 1500 -95 47 -11 93 -19 102 -19 9 0 57 -11 105 -24 48 -13 133 -34 188
-46 55 -12 129 -31 165 -42 36 -11 85 -24 110 -28 25 -5 65 -14 89 -20 24 -6
46 -8 49 -6 2 3 -3 23 -12 46 -9 22 -16 51 -16 63 0 13 -11 56 -25 97 -13 41
-25 83 -25 93 0 9 -10 52 -21 95 -78 284 -101 369 -110 417 -7 38 -28 114 -70
256 -10 36 -19 74 -19 85 0 11 -11 54 -25 94 -14 40 -25 83 -25 94 0 11 -9 49
-19 85 -36 124 -64 226 -72 271 -5 24 -18 74 -29 110 -10 36 -29 103 -40 150
-34 134 -70 269 -91 341 -10 36 -19 74 -19 84 0 10 -11 55 -24 99 -14 45 -30
104 -37 131 -23 98 -32 131 -55 215 -12 47 -32 123 -44 170 -36 141 -70 271
-91 341 -10 36 -19 74 -19 85 0 11 -10 49 -21 83 l-22 64 -68 -6 c-73 -6 -79
-2 -79 51 0 14 -9 55 -19 91 -30 104 -64 242 -69 284 -5 43 -12 45 -84 16 -29
-12 -69 -25 -88 -30 -19 -4 -68 -20 -109 -34 -41 -14 -75 -24 -76 -23 -6 11
-45 198 -45 215 0 12 -11 68 -25 125 -14 57 -25 120 -25 141 0 41 -11 46 -38
20 -10 -10 -45 -36 -78 -58 -32 -22 -65 -46 -72 -52 -7 -7 -20 -13 -28 -13 -8
0 -14 -4 -14 -8 0 -4 -20 -21 -45 -36 -25 -16 -45 -33 -45 -37 0 -5 -4 -9 -10
-9 -10 0 -131 -87 -166 -120 -12 -11 -26 -20 -31 -20 -4 0 -14 -9 -21 -20 -7
-11 -19 -20 -27 -20 -8 0 -15 -4 -15 -8 0 -4 -22 -25 -49 -45 -68 -52 -311
-290 -311 -305 0 -7 -4 -12 -9 -12 -5 0 -38 -37 -75 -82 -36 -46 -71 -90 -78
-98 -7 -8 -17 -22 -23 -31 -29 -48 -64 -96 -79 -108 -9 -7 -16 -18 -16 -23 0
-5 -8 -21 -19 -36 -47 -70 -100 -153 -108 -172 -3 -8 -12 -22 -19 -30 -6 -8
-21 -31 -32 -50 -59 -106 -70 -124 -78 -127 -5 -2 -18 16 -29 38 -11 23 -34
65 -52 93 -18 28 -36 58 -39 68 -3 10 -10 18 -15 18 -5 0 -9 4 -9 9 0 11 -59
110 -77 129 -7 7 -13 18 -13 23 0 5 -6 17 -14 26 -41 51 -86 114 -86 122 0 5
-3 11 -7 13 -5 2 -21 21 -38 43 -43 58 -48 65 -67 83 -10 9 -18 20 -18 25 0 5
-12 21 -27 37 -16 15 -81 81 -145 146 -131 134 -205 204 -214 204 -4 0 -17 10
-29 23 -12 12 -35 32 -51 44 -65 48 -110 83 -125 98 -9 8 -20 15 -26 15 -6 0
-16 7 -24 16 -7 8 -38 32 -68 52 -31 20 -58 39 -61 43 -3 3 -34 25 -70 48 -35
23 -67 45 -70 49 -3 4 -26 21 -52 39 l-47 32 -11 -37z m179 -237 c9 -5 18 -12
21 -16 3 -3 34 -25 70 -50 36 -24 69 -50 73 -56 4 -7 14 -13 22 -13 7 0 15 -3
17 -8 2 -4 32 -30 67 -57 36 -28 76 -61 90 -74 14 -13 43 -37 64 -55 32 -26
227 -219 262 -259 43 -48 147 -181 176 -222 19 -27 36 -52 40 -55 11 -11 69
-101 69 -109 0 -5 7 -14 16 -22 8 -7 24 -29 35 -48 11 -20 42 -72 70 -116 27
-44 56 -94 64 -112 8 -17 19 -34 25 -38 13 -8 14 -2555 0 -2555 -5 0 -13 6
-17 14 -13 24 -133 154 -212 230 -135 130 -189 178 -281 249 -30 23 -56 45
-58 49 -2 5 -7 8 -12 8 -5 0 -35 17 -67 38 -32 21 -78 49 -103 62 -25 12 -70
36 -100 51 -30 16 -58 29 -62 29 -4 0 -32 11 -62 25 -30 14 -59 25 -64 25 -5
0 -31 8 -58 19 -64 24 -198 65 -299 89 -44 11 -111 28 -150 37 -38 10 -92 22
-120 27 -27 5 -76 14 -108 20 -45 9 -56 14 -53 27 5 16 20 93 57 291 11 58 29
150 41 205 12 55 24 125 28 155 4 30 13 74 19 98 7 23 15 70 20 105 4 34 17
107 29 162 12 55 30 147 41 205 11 58 32 166 46 240 14 74 35 182 46 240 11
58 31 157 44 220 14 63 25 126 25 139 0 13 7 50 15 83 9 33 20 87 24 121 4 34
18 109 30 167 33 154 67 325 81 405 7 39 15 73 17 78 2 4 18 -3 35 -15 16 -13
37 -27 47 -33z m2721 -90 c11 -55 31 -161 45 -235 14 -74 35 -180 47 -235 12
-55 24 -122 28 -150 3 -27 14 -84 22 -125 9 -41 21 -100 27 -130 5 -30 17 -93
26 -140 9 -47 26 -132 37 -190 11 -58 30 -159 43 -225 13 -66 33 -167 43 -225
11 -58 28 -145 38 -195 9 -49 21 -112 26 -140 5 -27 18 -93 28 -145 10 -52 23
-117 28 -145 10 -55 33 -177 62 -325 11 -52 22 -116 25 -141 l6 -46 -63 -12
c-220 -41 -528 -121 -663 -172 -28 -11 -55 -19 -61 -19 -6 0 -34 -11 -62 -25
-29 -14 -55 -25 -60 -25 -13 0 -202 -98 -229 -120 -14 -11 -30 -20 -35 -20 -5
0 -43 -26 -85 -58 -41 -31 -82 -61 -90 -67 -69 -45 -306 -275 -437 -423 l-46
-53 0 1269 c0 1243 2 1332 30 1332 5 0 12 10 15 23 4 12 18 36 31 54 13 17 24
37 24 43 0 6 5 16 10 23 6 7 34 48 62 92 28 44 55 82 60 83 4 2 8 8 8 13 0 11
97 154 116 169 8 7 14 18 14 26 0 7 6 17 13 21 7 4 28 28 47 53 67 89 251 277
363 370 42 35 77 68 77 72 0 4 5 8 11 8 7 0 35 19 63 43 28 24 74 59 101 77
28 18 54 40 58 47 4 7 14 13 22 13 7 0 15 4 17 9 3 7 64 50 112 78 19 11 21
10 24 -10 1 -12 11 -67 22 -122z m-3108 -257 c26 -10 56 -18 67 -18 26 0 27
-15 2 -133 -20 -91 -55 -272 -102 -524 -6 -32 -21 -110 -34 -173 -13 -63 -33
-169 -45 -235 -11 -66 -32 -174 -45 -240 -13 -66 -33 -167 -43 -225 -11 -58
-32 -161 -46 -230 -14 -69 -26 -136 -26 -149 0 -13 -7 -51 -16 -85 -9 -33 -20
-86 -24 -116 -4 -30 -16 -100 -28 -155 -12 -55 -31 -147 -42 -205 -12 -58 -24
-115 -27 -127 -4 -19 0 -22 44 -28 49 -6 225 -43 343 -72 36 -8 79 -17 95 -20
29 -4 137 -34 262 -74 34 -10 67 -19 74 -19 41 0 449 -197 457 -221 2 -5 8 -9
14 -9 18 0 186 -132 262 -205 17 -17 42 -39 56 -50 14 -11 34 -32 45 -45 l20
-24 -25 16 c-48 33 -328 168 -346 168 -6 0 -28 9 -50 19 -22 11 -54 23 -70 26
-16 4 -54 15 -84 25 -91 30 -286 68 -445 87 -126 15 -230 18 -640 18 l-490 0
13 60 c8 33 25 98 38 145 13 47 24 93 24 103 0 10 9 51 19 90 11 40 31 117 44
172 14 55 33 132 42 170 10 39 21 88 25 110 3 22 16 74 27 115 29 105 55 208
63 255 9 51 46 200 71 286 10 36 19 74 19 85 0 11 11 58 23 104 13 47 34 130
46 185 13 55 34 138 47 185 13 47 24 94 24 105 0 11 9 49 21 85 11 36 24 85
28 110 5 25 16 77 26 115 9 39 28 115 42 170 13 55 33 133 44 172 10 40 19 81
19 90 0 10 9 50 21 89 l21 71 46 -15 c26 -8 68 -24 94 -34z m3542 -15 c8 -32
21 -89 31 -128 10 -38 26 -104 36 -145 25 -107 64 -263 84 -345 10 -38 21 -90
26 -115 4 -25 17 -74 28 -110 12 -36 21 -74 21 -85 0 -11 11 -58 24 -105 13
-47 34 -130 47 -185 12 -55 33 -138 46 -185 12 -46 23 -93 23 -104 0 -11 9
-49 19 -85 25 -86 62 -235 71 -286 7 -41 24 -108 65 -270 13 -49 28 -112 34
-140 6 -27 16 -70 22 -95 6 -25 22 -90 36 -145 13 -55 33 -132 44 -172 10 -39
19 -80 19 -92 0 -11 11 -55 25 -98 42 -133 101 -118 -472 -118 -360 0 -522 -4
-583 -13 -47 -7 -121 -17 -165 -21 -121 -13 -363 -74 -466 -117 -31 -13 -62
-24 -68 -24 -10 0 -181 -77 -224 -101 -10 -5 -44 -23 -75 -40 l-57 -30 75 73
c94 91 159 148 170 148 4 0 13 7 20 15 11 13 118 88 175 122 38 23 266 133
275 133 5 0 33 11 62 24 29 13 87 33 128 45 200 56 252 70 340 89 52 12 145
32 205 46 61 15 126 26 145 26 60 0 64 8 51 86 -7 38 -23 119 -37 180 -13 61
-24 124 -24 140 0 16 -9 63 -20 104 -11 41 -20 86 -20 100 0 14 -11 77 -25
140 -47 222 -65 315 -65 335 0 11 -11 72 -24 135 -22 101 -41 199 -74 375 -5
28 -17 91 -26 140 -10 50 -27 137 -38 195 -10 58 -30 157 -43 220 -40 198 -58
293 -66 350 -4 30 -11 72 -15 93 -6 33 -4 37 13 37 11 0 42 8 69 19 65 24 138
48 142 45 2 -1 9 -28 16 -61z"/>
</g>
</svg>
