<svg width="38" height="38" viewBox="0 0 38 38" fill="none" xmlns="http://www.w3.org/2000/svg">
<rect x="-0.00805664" y="0.000244141" width="37.024" height="37.024" rx="10.68" fill="#F6F6F6"/>
<path d="M18.4656 14.4757C16.2545 14.4757 14.471 16.2592 14.471 18.4703C14.471 20.6814 16.2545 22.4649 18.4656 22.4649C20.6767 22.4649 22.4602 20.6814 22.4602 18.4703C22.4602 16.2592 20.6767 14.4757 18.4656 14.4757ZM18.4656 21.0673C17.0367 21.0673 15.8686 19.9026 15.8686 18.4703C15.8686 17.0379 17.0332 15.8733 18.4656 15.8733C19.8979 15.8733 21.0626 17.0379 21.0626 18.4703C21.0626 19.9026 19.8944 21.0673 18.4656 21.0673ZM23.5553 14.3123C23.5553 14.8303 23.1381 15.244 22.6236 15.244C22.1055 15.244 21.6918 14.8268 21.6918 14.3123C21.6918 13.7978 22.109 13.3806 22.6236 13.3806C23.1381 13.3806 23.5553 13.7978 23.5553 14.3123ZM26.2009 15.2579C26.1418 14.0099 25.8568 12.9043 24.9424 11.9934C24.0316 11.0826 22.926 10.7975 21.6779 10.7349C20.3916 10.6619 16.5361 10.6619 15.2498 10.7349C14.0052 10.794 12.8996 11.0791 11.9853 11.99C11.0709 12.9008 10.7893 14.0064 10.7268 15.2545C10.6537 16.5408 10.6537 20.3963 10.7268 21.6826C10.7859 22.9307 11.0709 24.0363 11.9853 24.9471C12.8996 25.858 14.0017 26.1431 15.2498 26.2056C16.5361 26.2786 20.3916 26.2786 21.6779 26.2056C22.926 26.1465 24.0316 25.8615 24.9424 24.9471C25.8533 24.0363 26.1384 22.9307 26.2009 21.6826C26.2739 20.3963 26.2739 16.5443 26.2009 15.2579ZM24.5391 23.0628C24.268 23.7442 23.743 24.2692 23.0581 24.5438C22.0325 24.9506 19.5989 24.8567 18.4656 24.8567C17.3322 24.8567 14.8952 24.9471 13.873 24.5438C13.1916 24.2727 12.6667 23.7477 12.392 23.0628C11.9853 22.0372 12.0791 19.6036 12.0791 18.4703C12.0791 17.3369 11.9887 14.8999 12.392 13.8777C12.6632 13.1963 13.1882 12.6714 13.873 12.3967C14.8986 11.99 17.3322 12.0838 18.4656 12.0838C19.5989 12.0838 22.036 11.9934 23.0581 12.3967C23.7395 12.6679 24.2645 13.1929 24.5391 13.8777C24.9459 14.9033 24.852 17.3369 24.852 18.4703C24.852 19.6036 24.9459 22.0407 24.5391 23.0628Z" fill="#2A2F2F"/>
</svg>
