<svg width="101" height="51" viewBox="0 0 101 51" fill="none" xmlns="http://www.w3.org/2000/svg">
<g filter="url(#filter0_d_307_1509)">
<path d="M7.89234 27.3907C8.15846 27.3408 8.45785 27.3076 8.7905 27.3076C8.8404 25.5611 9.83835 22.6671 10.9028 19.6732C9.90488 19.5235 9.05662 19.5235 8.54101 19.8728C8.17509 18.4257 9.5556 18.143 11.4517 18.1763C12.433 15.3986 13.3811 12.6875 13.5807 10.8745C12.0006 10.7747 10.6035 10.9411 9.72192 11.939C9.43917 12.2384 8.67407 8.46282 12.1337 7.83078C14.9446 7.31517 20.9323 9.61047 22.8118 6.96588C23.0945 6.58333 23.3274 10.0429 21.4479 10.9743C20.2504 11.5565 18.6703 11.49 17.0236 11.2904C16.7908 12.8871 15.9259 15.5317 15.0277 18.4091C16.9904 18.5422 18.7202 18.5255 19.0861 17.5941C19.6682 21.0703 17.19 20.9539 14.429 20.3884C13.6639 22.9498 12.9486 25.5445 12.6825 27.6568C15.0943 27.9396 17.506 28.0394 18.5705 26.5258C18.8532 26.1433 19.0861 29.6029 17.2066 30.5177C13.9133 32.1476 7.84244 28.8211 5.48061 31.4823C5.19785 31.7817 4.43275 28.0061 7.89234 27.3907ZM21.9136 17.1617C21.897 17.0951 25.5894 16.7625 25.5229 18.8915C25.473 20.2553 22.2795 27.241 22.9448 29.4864C24.5748 27.4074 28.916 17.1617 28.916 17.1617C28.8993 17.0951 32.5918 16.7625 32.5086 18.8915C32.4587 20.272 29.6644 25.8439 29.9472 29.5862C31.2279 28.239 32.7747 24.5299 33.0575 23.8313C33.0907 23.7648 33.1573 23.7316 33.2238 23.7316C33.3569 23.7316 33.44 23.848 33.4068 23.9644C33.0076 25.1952 31.3443 30.2682 30.4794 30.7838C29.4815 31.3992 26.7703 30.368 26.5209 29.2369C26.0385 27.1412 28.0677 22.1515 28.7496 19.141C27.419 22.6172 24.342 30.4179 23.2775 30.8836C22.2962 31.2994 19.635 30.4511 19.4187 29.1205C19.0196 26.7088 22.4292 19.0911 21.9136 17.1617ZM29.3151 38.9171C28.6332 34.7257 34.9869 20.6213 34.3215 17.1284C34.3049 17.0619 38.147 17.1284 37.9142 19.2407C37.698 21.2533 34.8372 29.187 33.4899 35.0916C35.9016 26.1433 40.5421 17.6773 41.2573 17.2615C41.906 16.8789 43.9019 17.4444 44.7169 18.8748C45.8147 20.8042 43.4861 30.1185 39.6273 30.9002C38.7625 31.0832 36.7166 29.8025 36.3008 29.2868C34.8704 32.9626 33.5398 37.0709 32.9078 40.8631C32.8246 41.2623 29.5979 40.6469 29.3151 38.9171ZM41.6066 18.3093C41.3904 18.2262 38.829 22.8667 36.4838 28.8045C39.5608 30.5343 42.3884 18.6253 41.6066 18.3093ZM44.3843 28.9875C43.7023 24.7794 50.1392 10.1926 49.7067 7.08231C49.6901 7.01578 53.2162 7.19874 52.9833 9.31108C52.7505 11.49 49.3741 20.6712 48.243 26.6589C49.8564 22.6671 52.6673 16.9621 54.2807 17.1118C55.2121 17.1949 57.0916 18.0765 57.2579 18.642C57.7236 20.2054 54.4636 27.3408 54.3971 29.7027C55.6944 28.4552 57.3244 24.5465 57.6072 23.8313C57.6405 23.7648 57.707 23.7316 57.7735 23.7316C57.9066 23.7316 57.9897 23.848 57.9565 23.9644C57.5573 25.1952 55.7277 30.8337 54.9959 30.9335C53.5488 31.1331 51.1038 30.0852 50.9043 28.7712C50.6548 26.9915 53.4989 21.22 53.7817 18.4257C52.9501 18.2927 47.9437 28.3055 47.9769 30.8836C48.0767 31.3493 44.6837 30.7505 44.3843 28.9875ZM57.4076 28.7546C56.4263 25.977 58.6551 19.0245 61.1666 17.4112C62.0315 16.8457 64.3767 16.9953 65.1251 17.4943C65.7738 17.9101 65.358 18.3093 65.358 18.3093C62.6469 17.0452 59.4534 28.8211 60.7009 29.9688C62.1479 31.2994 65.5909 20.405 63.5118 19.9726C63.5118 19.9726 64.4765 18.6087 65.3081 18.7085C68.1855 19.0911 66.0067 28.871 61.9816 30.7671C60.8838 31.2828 58.2725 31.183 57.4076 28.7546ZM66.1231 29.1538C65.6906 26.5092 68.9673 19.0578 68.435 17.1284C68.4184 17.0619 72.3104 16.7625 72.2439 18.8915C72.194 20.089 70.0817 24.4468 69.7157 28.0228C70.9798 24.0975 73.8739 16.9454 75.6702 17.1118C76.6016 17.1949 78.2316 17.96 78.398 18.5089C78.6142 19.2407 76.3854 22.7336 76.9842 24.8958C72.0277 24.6796 75.2378 19.0744 75.1712 18.4257C74.3396 18.2927 69.8821 28.2057 69.8987 30.8004C69.9153 30.9002 69.7989 30.9667 69.7157 30.9501C69.0005 30.8669 66.3393 30.4844 66.1231 29.1538ZM83.3545 16.8623C78.5975 16.2302 81.6247 13.5524 81.4251 11.7893C86.5812 12.621 82.9387 14.4007 83.3545 16.8623ZM76.9676 29.1538C76.5018 26.609 79.9282 19.0578 79.4125 17.1284C79.3959 17.0619 83.2547 16.7625 83.1881 18.8915C83.1383 20.272 80.3772 25.7607 80.6101 29.5031C81.8742 28.0893 83.3711 24.5133 83.6539 23.8313C83.6705 23.7648 83.737 23.7316 83.8202 23.7316C83.9366 23.7316 84.0198 23.848 83.9865 23.9644C83.604 25.1952 81.791 30.5177 80.9926 30.9002C80.1776 31.2661 77.1838 30.4012 76.9676 29.1538ZM86.9139 30.8836C86.3151 31.2994 83.6206 30.5676 83.0052 29.4532C82.2068 28.0228 84.2027 20.7709 86.0323 18.4257C87.4627 16.6128 90.5564 17.0619 91.2882 17.4943C91.4712 17.5941 91.5377 17.6939 91.4379 17.9767C91.3215 18.2927 91.0886 18.2262 90.7227 18.1264C88.8599 17.644 86.0656 27.8564 86.2486 29.9355L92.1864 17.2947C92.386 16.7459 95.9121 17.6606 95.5794 18.3592C95.2468 19.0578 92.8184 27.3408 92.7519 29.7027C94.0492 28.4552 95.6959 24.5465 95.9786 23.8313C96.0119 23.7648 96.0784 23.7316 96.145 23.7316C96.2614 23.7316 96.3612 23.848 96.3113 23.9644C95.9287 25.1952 94.0991 30.8337 93.3673 30.9335C91.9036 31.1331 89.4586 30.0852 89.2757 28.7712C89.1094 27.6568 90.0242 24.2139 90.8724 21.3864C89.4087 25.1786 87.2465 30.6507 86.9139 30.8836Z" fill="#3C4242"/>
<path d="M5 33.6259H27.4033" stroke="#333333" stroke-width="0.420324" stroke-miterlimit="10" stroke-linecap="round" stroke-linejoin="round"/>
<path d="M36.9857 33.6259H96.0361" stroke="#3C4242" stroke-width="0.420324" stroke-miterlimit="10" stroke-linecap="round" stroke-linejoin="round"/>
<path d="M44.9504 41.2617C44.7868 41.2617 44.5979 41.1972 44.382 41.0689C44.1669 40.9398 43.938 40.7693 43.6968 40.5565C43.4556 40.3438 43.2183 40.1126 42.984 39.8621C42.7505 39.6125 42.5347 39.3636 42.338 39.1155C42.1414 38.8682 41.9762 38.6477 41.8426 38.4549L40.7626 40.7862C40.7103 40.8999 40.6289 40.9805 40.5175 41.0274C40.4061 41.0743 40.2856 41.1027 40.1557 41.1127C40.0259 41.1227 39.8976 41.1273 39.7717 41.1273C39.8677 40.989 39.9668 40.83 40.0666 40.6518C40.1673 40.4736 40.2856 40.2585 40.423 40.0058C40.5605 39.7531 40.7219 39.4466 40.9077 39.0848C41.0936 38.7238 41.3141 38.2913 41.5706 37.789C41.8264 37.2866 42.1291 36.6967 42.4786 36.0184C42.5009 35.9785 42.5308 35.9232 42.5677 35.8517C42.6046 35.7803 42.6238 35.7142 42.6238 35.6551C42.6238 35.6005 42.6053 35.5575 42.5677 35.5253C42.5308 35.493 42.4601 35.4769 42.3564 35.4769C42.1782 35.4769 42.0054 35.5253 41.8387 35.6213C41.672 35.7173 41.523 35.8402 41.3932 35.9892C41.2634 36.1375 41.1612 36.2911 41.0867 36.4493C41.0122 36.6076 40.9753 36.7489 40.9753 36.8726C40.9753 36.967 40.9938 37.0508 41.0306 37.1253C40.7856 37.1253 40.6128 37.0846 40.5129 37.0032C40.4123 36.9217 40.3624 36.8211 40.3624 36.702C40.3624 36.5338 40.4361 36.3656 40.5851 36.1974C40.7334 36.0292 40.9246 35.874 41.1589 35.7334C41.3932 35.5921 41.6382 35.4799 41.894 35.3954C42.1498 35.3117 42.3818 35.2695 42.59 35.2695C42.7904 35.2695 42.9256 35.3063 42.9963 35.3809C43.067 35.4554 43.1023 35.5368 43.1023 35.6259C43.1023 35.6804 43.0931 35.735 43.0747 35.7895C43.0562 35.844 43.0355 35.8963 43.0132 35.9454L42.0776 37.9649C42.1813 37.8658 42.3173 37.7744 42.484 37.6899C42.6506 37.6061 42.835 37.5094 43.0355 37.4003C43.3696 37.2221 43.7276 37.0139 44.1101 36.7766C44.4926 36.5392 44.8583 36.2888 45.207 36.0268C45.5557 35.7641 45.8453 35.5122 46.0758 35.2695C46.1126 35.2994 46.1387 35.3509 46.1541 35.4254C46.1687 35.4999 46.1764 35.5568 46.1764 35.5959C46.1764 35.7496 46.0819 35.9178 45.8922 36.1006C45.7024 36.2834 45.4559 36.4731 45.1517 36.6682C44.8475 36.8641 44.5134 37.0569 44.1493 37.2474C43.7852 37.4379 43.4272 37.6177 43.0747 37.7859C42.7221 37.9541 42.4041 38.1 42.1222 38.2237C42.3449 38.4764 42.5623 38.7161 42.7735 38.9442C42.9848 39.1716 43.2152 39.3944 43.4641 39.6125C43.713 39.8307 44.0041 40.0534 44.3382 40.2808C44.6724 40.5081 45.0772 40.7532 45.5519 41.0159C45.4997 41.0804 45.4182 41.1372 45.3068 41.1864C45.1955 41.2371 45.0764 41.2617 44.9504 41.2617Z" fill="#3C4242"/>
<path d="M50.9091 40.9796C50.4559 40.9796 50.1203 40.8882 49.9013 40.7046C49.6824 40.5218 49.5726 40.3013 49.5726 40.044C49.253 40.3259 48.8859 40.5464 48.4703 40.7046C48.0547 40.8628 47.6346 40.9419 47.2121 40.9419C46.7589 40.9419 46.4194 40.859 46.1928 40.6931C45.9662 40.5272 45.8533 40.3228 45.8533 40.0809C45.8533 39.8581 45.937 39.6231 46.1037 39.3757C46.2711 39.1284 46.4939 38.8956 46.772 38.6775C47.05 38.4601 47.3565 38.2827 47.6906 38.1467C48.0248 38.0107 48.3551 37.9424 48.6823 37.9424C48.8528 37.9424 49.0111 37.9723 49.1555 38.0315C49.3007 38.0906 49.3729 38.212 49.3729 38.3956C49.3729 38.5838 49.2891 38.7604 49.1224 38.9264C48.9558 39.0923 48.7361 39.2398 48.4657 39.368C48.1945 39.4971 47.8973 39.6016 47.5747 39.6837C47.252 39.7659 46.9302 39.8159 46.6114 39.8358C46.5968 39.8858 46.5853 39.9326 46.5776 39.9772C46.5699 40.0217 46.5661 40.064 46.5661 40.1031C46.5661 40.2022 46.5922 40.2998 46.6444 40.3966C46.6959 40.4934 46.785 40.5725 46.9118 40.6339C47.0377 40.6961 47.2159 40.7269 47.4464 40.7269C47.8397 40.7269 48.2299 40.6339 48.6162 40.4488C49.0018 40.2629 49.3398 40.034 49.6294 39.7621C49.6962 39.5593 49.8153 39.3565 49.9858 39.153C50.1564 38.9502 50.363 38.7658 50.6042 38.5999C50.8454 38.434 51.1073 38.3003 51.3892 38.1989C51.6711 38.0975 51.9576 38.0468 52.2472 38.0468C52.4177 38.0468 52.576 38.0768 52.7204 38.136C52.8648 38.1951 52.9378 38.3165 52.9378 38.5C52.9378 38.7528 52.8095 38.974 52.5537 39.1645C52.2979 39.355 51.9692 39.5071 51.5682 39.6215C51.1672 39.7352 50.7555 39.8074 50.3323 39.8366C50.3177 39.8865 50.3061 39.9334 50.2985 39.9779C50.2908 40.0225 50.2869 40.0647 50.2869 40.1039C50.2869 40.203 50.3108 40.3044 50.3591 40.4081C50.4075 40.5118 50.4928 40.5971 50.6149 40.6639C50.7378 40.7307 50.9137 40.7637 51.1442 40.7637C51.4637 40.7637 51.7825 40.7008 52.102 40.5748C52.4216 40.4488 52.7181 40.2829 52.9931 40.077C53.2681 39.8719 53.4977 39.6499 53.6836 39.4126L53.8173 39.4794C53.6168 39.7767 53.3587 40.0379 53.043 40.2629C52.7273 40.488 52.3863 40.6639 52.0183 40.7899C51.6496 40.9166 51.2801 40.9796 50.9091 40.9796ZM46.6659 39.6945C46.8664 39.6499 47.093 39.5847 47.345 39.4979C47.5977 39.4111 47.8404 39.3089 48.0747 39.1898C48.309 39.0708 48.5018 38.9402 48.6539 38.7965C48.806 38.6529 48.882 38.5024 48.882 38.3434C48.882 38.2888 48.8674 38.2466 48.8375 38.2174C48.8075 38.1874 48.7445 38.1728 48.6485 38.1728C48.4703 38.1728 48.2806 38.2189 48.0801 38.3103C47.8796 38.4017 47.6868 38.5216 47.5009 38.6706C47.315 38.8188 47.1483 38.9824 46.9993 39.1606C46.8511 39.3381 46.7397 39.5163 46.6659 39.6945ZM50.386 39.6945C50.5865 39.6499 50.8054 39.5908 51.0436 39.5163C51.2809 39.4418 51.5075 39.3542 51.7234 39.2528C51.9384 39.1514 52.1166 39.0354 52.258 38.9041C52.3985 38.7727 52.4692 38.6283 52.4692 38.4701C52.4692 38.4156 52.4508 38.3695 52.4131 38.3326C52.3763 38.2957 52.3094 38.2773 52.2127 38.2773C51.9753 38.2773 51.7356 38.3464 51.4944 38.4855C51.2533 38.6237 51.0343 38.8012 50.8369 39.0162C50.6403 39.2305 50.4897 39.4571 50.386 39.6945Z" fill="#3C4242"/>
<path d="M52.7477 42.6948C52.6885 42.6948 52.6309 42.6741 52.5748 42.6319C52.5188 42.5896 52.4765 42.5451 52.4466 42.4982C52.4166 42.4513 52.402 42.4229 52.402 42.4129C52.5057 42.1702 52.6079 41.9536 52.7085 41.7631C52.8091 41.5726 52.909 41.3767 53.0096 41.1762C53.1095 40.9758 53.2086 40.7407 53.3046 40.4711C53.4014 40.2015 53.5012 39.8658 53.6057 39.4648C53.7094 39.0639 53.8138 38.5661 53.9175 37.9724C53.9252 37.9278 53.9398 37.8955 53.9621 37.8756C53.9844 37.8556 54.0397 37.8456 54.1288 37.8456C54.3216 37.8456 54.4591 37.8817 54.5413 37.9532C54.6227 38.0246 54.6634 38.1029 54.6634 38.1867C54.6634 38.2558 54.6411 38.3795 54.5966 38.5577C54.552 38.7359 54.489 38.9463 54.4076 39.1891C54.5336 39.0255 54.6918 38.8596 54.8808 38.6913C55.0697 38.5231 55.2871 38.3818 55.5322 38.2681C55.7772 38.1544 56.0445 38.0976 56.3341 38.0976C56.6605 38.0976 56.9302 38.1759 57.1414 38.3311C57.3526 38.487 57.4586 38.6913 57.4586 38.944C57.4586 39.1368 57.3933 39.3412 57.2635 39.5562C57.1337 39.7713 56.9517 39.9749 56.7182 40.1654C56.4846 40.3559 56.2073 40.511 55.8886 40.6293C55.569 40.7484 55.2165 40.8075 54.8309 40.8075C54.6373 40.8075 54.4821 40.7929 54.3631 40.763C54.244 40.733 54.1848 40.7038 54.1848 40.6739C54.1848 40.6539 54.2125 40.6432 54.2686 40.6401C54.3247 40.6378 54.3892 40.6362 54.4637 40.6362C54.7609 40.6362 55.0444 40.5879 55.3155 40.4911C55.5867 40.3943 55.8294 40.2668 56.0453 40.1085C56.2604 39.9503 56.4293 39.7744 56.5522 39.5816C56.6744 39.3888 56.7358 39.1983 56.7358 39.0101C56.7358 38.8519 56.6859 38.7167 56.5853 38.6053C56.4854 38.4939 56.3233 38.4386 56.1006 38.4386C55.9078 38.4386 55.7165 38.4793 55.5268 38.5607C55.3371 38.6422 55.1588 38.7466 54.9922 38.8726C54.8247 38.9986 54.6765 39.1299 54.5466 39.2659C54.4168 39.4019 54.3185 39.5248 54.2517 39.6331C54.118 40.0041 53.9844 40.362 53.8507 40.7061C53.7171 41.0503 53.5888 41.3621 53.4666 41.6417C53.3437 41.9213 53.2331 42.1502 53.1325 42.3284C53.0327 42.5067 52.9489 42.6157 52.8821 42.6549C52.8437 42.6826 52.7991 42.6948 52.7477 42.6948Z" fill="#3C4242"/>
<path d="M61.5019 40.8083C61.2124 40.8083 60.9965 40.7476 60.8559 40.6263C60.7146 40.5049 60.6447 40.3574 60.6447 40.1846C60.6447 40.0709 60.6762 39.9273 60.7392 39.7537C60.8022 39.5808 60.8859 39.3988 60.9896 39.2083C61.0933 39.0178 61.2139 38.838 61.3514 38.6698C61.4889 38.5016 61.6356 38.3641 61.7915 38.2573C61.9475 38.1513 62.0996 38.0976 62.2486 38.0976C62.3154 38.0976 62.373 38.1114 62.4214 38.1383C62.4698 38.1652 62.4936 38.2066 62.4936 38.2604C62.4936 38.3196 62.436 38.4163 62.3208 38.55C62.2056 38.6836 62.0704 38.8373 61.9144 39.0101C61.7585 39.1837 61.6233 39.365 61.5081 39.5555C61.3929 39.746 61.3353 39.928 61.3353 40.1016C61.3353 40.2798 61.3798 40.3989 61.4689 40.458C61.558 40.5172 61.6955 40.5471 61.8814 40.5471C62.1341 40.5471 62.403 40.4634 62.6887 40.2944C62.9745 40.1262 63.2771 39.832 63.5966 39.4111L63.6965 39.4856C63.4814 39.9111 63.1711 40.2383 62.7663 40.4657C62.3607 40.6946 61.9398 40.8083 61.5019 40.8083ZM62.8377 37.4078C62.7187 37.4078 62.6134 37.3878 62.5205 37.3486C62.4275 37.3087 62.3815 37.2472 62.3815 37.1627C62.3815 37.059 62.4721 36.9684 62.6541 36.8916C62.8362 36.8148 63.0159 36.7764 63.1941 36.7764C63.3055 36.7764 63.3946 36.794 63.4615 36.8286C63.5283 36.8632 63.5613 36.9231 63.5613 37.0068C63.5613 37.1005 63.4853 37.1912 63.3332 37.278C63.1819 37.3648 63.0167 37.4078 62.8377 37.4078Z" fill="#3C4242"/>
<path d="M64.3299 40.9573C64.0104 40.9573 63.7653 40.8951 63.5948 40.7714C63.4243 40.6478 63.339 40.4649 63.339 40.2222C63.339 40.0048 63.4005 39.736 63.5226 39.4164C63.6447 39.0969 63.7991 38.7697 63.985 38.4325C63.9105 38.4225 63.8406 38.414 63.7738 38.4063C63.707 38.3987 63.644 38.3879 63.5848 38.3733V38.2396C63.644 38.2443 63.7146 38.2496 63.7961 38.2542C63.8775 38.2589 63.9704 38.2642 64.0741 38.2688C64.2301 38.0015 64.3975 37.7427 64.5749 37.493C64.7532 37.2434 64.9298 37.0206 65.1042 36.8247C65.2786 36.6296 65.446 36.4729 65.6058 36.357C65.7656 36.241 65.9007 36.1826 66.0121 36.1826C66.0713 36.1826 66.125 36.1964 66.1734 36.2233C66.2218 36.2502 66.2456 36.2917 66.2456 36.3454C66.2456 36.4299 66.1681 36.5667 66.0121 36.7579C65.8562 36.9484 65.6634 37.175 65.433 37.4369C65.2025 37.6996 64.9797 37.9839 64.7647 38.2911C64.8315 38.2911 64.8999 38.2911 64.9705 38.2911C65.0412 38.2911 65.1096 38.2911 65.1764 38.2911C65.4214 38.2911 65.6795 38.2888 65.9507 38.2834C66.2218 38.2788 66.4945 38.2658 66.7695 38.2466V38.3802C66.3609 38.4102 65.9952 38.4325 65.6726 38.447C65.35 38.4616 65.0619 38.4693 64.8092 38.4693C64.7793 38.4693 64.7516 38.4693 64.7255 38.4693C64.6994 38.4693 64.6717 38.4693 64.6418 38.4693C64.4712 38.732 64.3261 39.0016 64.2078 39.2789C64.0887 39.5562 64.0296 39.8258 64.0296 40.0885C64.0296 40.3013 64.078 40.4534 64.174 40.5448C64.27 40.6362 64.4298 40.6823 64.6533 40.6823C65.0397 40.6823 65.4184 40.5686 65.7894 40.3405C66.1604 40.1131 66.4868 39.8036 66.7695 39.4126L66.9139 39.4871C66.7357 39.7644 66.5106 40.014 66.2403 40.2368C65.9691 40.4596 65.6703 40.6355 65.3438 40.7637C65.0166 40.8928 64.6794 40.9573 64.3299 40.9573Z" fill="#3C4242"/>
<path d="M70.6455 41.0311C70.289 41.0311 69.9918 40.952 69.7544 40.7937C69.5171 40.6355 69.398 40.3981 69.398 40.0809C69.398 39.8336 69.4702 39.5924 69.6154 39.3565C69.7598 39.1215 69.9511 38.9103 70.1892 38.7221C70.4265 38.5339 70.69 38.3841 70.9796 38.2727C71.2692 38.1613 71.5549 38.106 71.8376 38.106C72.1418 38.106 72.3499 38.1652 72.4613 38.2842C72.5727 38.4033 72.628 38.527 72.628 38.6552C72.628 38.7989 72.5781 38.9249 72.4775 39.0339C72.3776 39.143 72.2416 39.1975 72.0711 39.1975C71.9451 39.1975 71.8376 39.1607 71.7477 39.0862C71.8591 39.047 71.9559 38.9663 72.0373 38.845C72.1187 38.7236 72.1602 38.6084 72.1602 38.4993C72.1602 38.4402 72.1433 38.3941 72.1103 38.3618C72.0765 38.3295 72.012 38.3134 71.9152 38.3134C71.7147 38.3134 71.5088 38.3726 71.2968 38.4916C71.0856 38.6107 70.8882 38.7635 70.7069 38.9517C70.5249 39.1399 70.3766 39.3381 70.2614 39.5455C70.1462 39.7537 70.0886 39.9488 70.0886 40.1324C70.0886 40.286 70.1446 40.4266 70.256 40.5556C70.3674 40.6839 70.5825 40.7484 70.902 40.7484C71.1993 40.7484 71.4981 40.6939 71.7984 40.5848C72.0988 40.4757 72.3791 40.3198 72.6395 40.117C72.8992 39.9142 73.1073 39.6761 73.2633 39.4042L73.4077 39.4787C73.2371 39.7759 73.0029 40.0417 72.7064 40.2768C72.4091 40.5118 72.0826 40.6962 71.7262 40.8298C71.369 40.9642 71.0088 41.0311 70.6455 41.0311Z" fill="#3C4242"/>
<path d="M73.9757 40.8383C73.6561 40.8383 73.428 40.7653 73.2905 40.6193C73.153 40.4734 73.0846 40.2914 73.0846 40.074C73.0846 39.8366 73.1515 39.5539 73.2851 39.2275C73.4188 38.901 73.5955 38.5569 73.8144 38.1951C74.0333 37.8341 74.2729 37.4815 74.5326 37.1366C74.7922 36.7925 75.0518 36.4799 75.3122 36.1972C75.5719 35.9153 75.8115 35.6895 76.0304 35.5212C76.2494 35.353 76.4222 35.2685 76.5482 35.2685C76.6296 35.2685 76.6964 35.2993 76.7486 35.3615C76.8009 35.4237 76.8416 35.4974 76.8715 35.5842C76.9007 35.671 76.9161 35.7486 76.9161 35.8177C76.9161 35.9514 76.8662 36.1258 76.7655 36.3416C76.6657 36.5567 76.5243 36.7971 76.3423 37.0621C76.1603 37.3271 75.9452 37.5944 75.6963 37.864C75.4474 38.1337 75.1763 38.3925 74.8836 38.6399C74.5902 38.8872 74.2806 39.1 73.9534 39.2782C73.9089 39.4118 73.8735 39.5417 73.8474 39.6684C73.8213 39.7944 73.8082 39.915 73.8082 40.0287C73.8082 40.2215 73.8489 40.3651 73.9304 40.4596C74.0118 40.5533 74.1347 40.6009 74.2983 40.6009C74.4988 40.6009 74.6977 40.5418 74.8944 40.4227C75.091 40.3036 75.2769 40.1539 75.4513 39.9733C75.6256 39.7928 75.7762 39.6062 75.9022 39.4126L76.0688 39.4718C75.7716 39.8927 75.449 40.2253 75.0995 40.4703C74.7515 40.7161 74.3766 40.8383 73.9757 40.8383ZM74.054 39.0262C74.3137 38.8526 74.5664 38.6537 74.8114 38.4286C75.0564 38.2036 75.2846 37.9693 75.4966 37.7273C75.7086 37.4846 75.896 37.2495 76.0589 37.0222C76.2217 36.7948 76.3484 36.5905 76.4375 36.41C76.5267 36.2295 76.5712 36.0897 76.5712 35.9906C76.5712 35.9414 76.562 35.9091 76.5436 35.8938C76.5251 35.8792 76.5082 35.8715 76.4936 35.8715C76.4345 35.8715 76.3323 35.9345 76.1871 36.0605C76.0427 36.1864 75.8737 36.3562 75.6802 36.569C75.4874 36.7817 75.2907 37.0245 75.0902 37.2964C74.8898 37.5683 74.6985 37.8533 74.5164 38.1506C74.3336 38.4471 74.18 38.7397 74.054 39.0262Z" fill="#3C4242"/>
<path d="M76.2143 40.9643C75.9839 40.9643 75.7888 40.9136 75.6298 40.8122C75.47 40.7108 75.3901 40.5564 75.3901 40.3482C75.3901 40.17 75.4492 39.978 75.5683 39.7729C75.6866 39.5678 75.8502 39.3642 76.0584 39.1637C76.2665 38.9633 76.5024 38.7804 76.7658 38.6145C77.0293 38.4486 77.3074 38.3165 77.6016 38.2174C77.895 38.1183 78.1861 38.0692 78.4757 38.0692C78.7653 38.0692 79.0065 38.1198 79.1993 38.2212C79.3921 38.3226 79.4889 38.4578 79.4889 38.6261C79.4889 38.7497 79.4389 38.8342 79.3383 38.8788C79.2377 38.9233 79.1063 38.9456 78.9427 38.9456C78.9573 38.9056 78.9704 38.8626 78.9819 38.8158C78.9934 38.7689 78.9988 38.7259 78.9988 38.686C78.9988 38.5723 78.9581 38.4747 78.8767 38.3925C78.7945 38.3111 78.6539 38.2704 78.4534 38.2704C78.2453 38.2704 78.034 38.3188 77.8182 38.4148C77.6031 38.5116 77.3949 38.6399 77.1945 38.8012C76.994 38.9625 76.8158 39.1369 76.6598 39.3251C76.5039 39.5132 76.3818 39.6991 76.2919 39.8819C76.2028 40.0648 76.1582 40.2284 76.1582 40.372C76.1582 40.5648 76.2581 40.6616 76.4593 40.6616C76.6299 40.6616 76.8158 40.6086 77.0162 40.5018C77.2167 40.3958 77.4226 40.2591 77.6346 40.0932C77.8458 39.9273 78.0486 39.7552 78.2414 39.577C78.4342 39.3988 78.6055 39.2352 78.7538 39.0869C78.783 39.057 78.8022 39.0424 78.8091 39.0424C78.8536 39.047 78.9112 39.057 78.9819 39.0723C79.0526 39.0869 79.114 39.1069 79.1655 39.1315C79.2177 39.1561 79.2438 39.1883 79.2438 39.2283C79.2438 39.2728 79.21 39.3335 79.1432 39.4103C79.0764 39.4871 79.0019 39.5747 78.9205 39.6738C78.8383 39.7729 78.7645 39.8735 78.6977 39.9749C78.6309 40.0763 78.5978 40.1715 78.5978 40.2606C78.5978 40.3351 78.627 40.4081 78.6869 40.4796C78.7461 40.5518 78.8429 40.5871 78.9765 40.5871C79.177 40.5871 79.4405 40.4895 79.7669 40.2937C80.0934 40.0986 80.4245 39.8051 80.7586 39.4134L80.87 39.4879C80.714 39.7552 80.5136 39.9903 80.2685 40.193C80.0235 40.3958 79.7616 40.5548 79.4835 40.6685C79.2054 40.7822 78.932 40.839 78.6647 40.839C78.3897 40.839 78.1877 40.7845 78.0578 40.6754C77.928 40.5664 77.8627 40.4481 77.8627 40.319C77.8627 40.2891 77.8666 40.256 77.8743 40.2192C77.8812 40.1823 77.8888 40.1439 77.8965 40.1039C77.577 40.3912 77.2859 40.6063 77.0224 40.7499C76.7582 40.8928 76.4885 40.9643 76.2143 40.9643Z" fill="#3C4242"/>
<path d="M81.7052 40.9942C81.3565 40.9942 81.0799 40.9435 80.8756 40.8421C80.6713 40.7407 80.5269 40.6155 80.4408 40.4673C80.3556 40.319 80.3126 40.17 80.3126 40.0217C80.3126 39.8735 80.3425 39.759 80.4017 39.6799C80.4616 39.6008 80.5338 39.5417 80.6191 39.5017C80.7043 39.4618 80.7857 39.4326 80.8641 39.4126C80.9424 39.3926 80.9954 39.3727 81.0254 39.3535C81.2482 39.1899 81.4525 39.0193 81.6384 38.8411C81.8243 38.6629 81.9871 38.4747 82.1284 38.2765V38.1874C82.1284 38.0046 82.1745 37.874 82.2675 37.7972C82.3604 37.7204 82.4587 37.682 82.5624 37.682C82.6216 37.682 82.6661 37.692 82.6961 37.712C82.726 37.7319 82.7406 37.7542 82.7406 37.7788C82.7406 37.8034 82.7299 37.8433 82.7076 37.8979C82.6853 37.9524 82.6738 38.0215 82.6738 38.106C82.6738 38.2696 82.7222 38.4463 82.8182 38.6368C82.915 38.8273 83.011 39.0278 83.1078 39.2382C83.2038 39.4487 83.2522 39.6676 83.2522 39.895C83.2522 39.9595 83.2468 40.0225 83.2353 40.084C83.2246 40.1462 83.2077 40.2038 83.1854 40.2583C83.445 40.2284 83.6901 40.1508 83.9205 40.0248C84.1509 39.8988 84.3737 39.6968 84.5888 39.4195L84.6886 39.494C84.5473 39.766 84.3361 39.9726 84.0542 40.1139C83.7723 40.2553 83.4635 40.3428 83.1293 40.3774C83.0103 40.5902 82.8228 40.7461 82.567 40.8452C82.312 40.945 82.024 40.9942 81.7052 40.9942ZM81.7275 40.7346C81.8166 40.7346 81.9356 40.7146 82.0839 40.6754C82.2321 40.6355 82.3474 40.5341 82.4296 40.3712C82.1177 40.3321 81.8412 40.2499 81.6 40.1262C81.3588 40.0025 81.1783 39.8789 81.06 39.7552C80.8964 39.7606 80.8149 39.8466 80.8149 40.0148C80.8149 40.193 80.8948 40.3574 81.0546 40.5087C81.2128 40.6585 81.4379 40.7346 81.7275 40.7346ZM82.4849 40.2514C82.4994 40.2023 82.511 40.15 82.5179 40.0955C82.5256 40.041 82.5294 39.9764 82.5294 39.9027C82.5294 39.6699 82.4864 39.4387 82.4011 39.2083C82.3159 38.9778 82.2437 38.7612 82.1837 38.5585C82.0132 38.7466 81.8327 38.9264 81.6438 39.0969C81.4548 39.2674 81.2743 39.4103 81.1038 39.524C81.2151 39.6822 81.388 39.8312 81.6215 39.9695C81.8558 40.1085 82.143 40.2023 82.4849 40.2514Z" fill="#3C4242"/>
<path d="M85.5472 40.9942C85.1985 40.9942 84.922 40.9435 84.7176 40.8421C84.5133 40.7407 84.3689 40.6155 84.2829 40.4673C84.1976 40.319 84.1546 40.17 84.1546 40.0217C84.1546 39.8735 84.1846 39.759 84.2437 39.6799C84.3036 39.6008 84.3758 39.5417 84.4611 39.5017C84.5463 39.4618 84.6278 39.4326 84.7061 39.4126C84.7845 39.3926 84.8375 39.3727 84.8674 39.3535C85.0902 39.1899 85.2945 39.0193 85.4804 38.8411C85.6663 38.6629 85.8291 38.4747 85.9705 38.2765V38.1874C85.9705 38.0046 86.0166 37.874 86.1095 37.7972C86.2024 37.7204 86.3008 37.682 86.4045 37.682C86.4636 37.682 86.5082 37.692 86.5381 37.712C86.5681 37.7319 86.5827 37.7542 86.5827 37.7788C86.5827 37.8034 86.5719 37.8433 86.5496 37.8979C86.5274 37.9524 86.5158 38.0215 86.5158 38.106C86.5158 38.2696 86.5642 38.4463 86.6603 38.6368C86.757 38.8273 86.8531 39.0278 86.9498 39.2382C87.0459 39.4487 87.0943 39.6676 87.0943 39.895C87.0943 39.9595 87.0889 40.0225 87.0773 40.084C87.0666 40.1462 87.0497 40.2038 87.0274 40.2583C87.2871 40.2284 87.5321 40.1508 87.7625 40.0248C87.993 39.8988 88.2157 39.6968 88.4308 39.4195L88.5307 39.494C88.3893 39.766 88.1781 39.9726 87.8962 40.1139C87.6143 40.2553 87.3055 40.3428 86.9713 40.3774C86.8523 40.5902 86.6649 40.7461 86.4091 40.8452C86.1548 40.945 85.8668 40.9942 85.5472 40.9942ZM85.5695 40.7346C85.6586 40.7346 85.7777 40.7146 85.9259 40.6754C86.0742 40.6355 86.1894 40.5341 86.2716 40.3712C85.9597 40.3321 85.6832 40.2499 85.442 40.1262C85.2008 40.0025 85.0203 39.8789 84.902 39.7552C84.7384 39.7606 84.657 39.8466 84.657 40.0148C84.657 40.193 84.7368 40.3574 84.8966 40.5087C85.0556 40.6585 85.2799 40.7346 85.5695 40.7346ZM86.3269 40.2514C86.3415 40.2023 86.353 40.15 86.3599 40.0955C86.3676 40.041 86.3714 39.9764 86.3714 39.9027C86.3714 39.6699 86.3284 39.4387 86.2432 39.2083C86.1579 38.9778 86.0857 38.7612 86.0258 38.5585C85.8553 38.7466 85.6747 38.9264 85.4858 39.0969C85.2968 39.2674 85.1163 39.4103 84.9458 39.524C85.0572 39.6822 85.23 39.8312 85.4635 39.9695C85.6978 40.1085 85.9858 40.2023 86.3269 40.2514Z" fill="#3C4242"/>
<path d="M88.6999 42.6949C88.514 42.6949 88.3512 42.6618 88.2098 42.595C88.0685 42.5282 87.9978 42.4306 87.9978 42.3016C87.9978 42.1433 88.0577 42.002 88.176 41.8783C88.2943 41.7547 88.4541 41.641 88.6553 41.5365C88.8558 41.4328 89.0855 41.3337 89.3459 41.2392C89.6055 41.1455 89.8767 41.0511 90.1586 40.9573C90.2623 40.7745 90.3683 40.5702 90.4758 40.3451C90.5834 40.1201 90.6855 39.8712 90.7823 39.5993C90.545 39.8566 90.2907 40.0778 90.0196 40.2637C89.7484 40.4496 89.4604 40.5418 89.1562 40.5418C89.0148 40.5418 88.8758 40.521 88.7383 40.4788C88.6008 40.4365 88.4879 40.3713 88.3988 40.2822C88.3097 40.193 88.2651 40.0794 88.2651 39.9403C88.2651 39.8021 88.3005 39.6408 88.3711 39.4579C88.4418 39.2751 88.5286 39.0969 88.6331 38.9233C88.7368 38.7505 88.8443 38.6068 88.9565 38.4924C89.0686 38.3779 89.1646 38.3219 89.246 38.3219C89.276 38.3219 89.3298 38.3295 89.4074 38.3441C89.4857 38.3587 89.5594 38.3802 89.6301 38.4071C89.7008 38.4348 89.7361 38.4632 89.7361 38.4924C89.6693 38.5569 89.5948 38.6483 89.5134 38.7674C89.4312 38.8864 89.352 39.0186 89.2737 39.1645C89.1961 39.3105 89.1308 39.4526 89.0786 39.5916C89.0264 39.7299 89.001 39.8489 89.001 39.948C89.001 40.0371 89.0302 40.1085 89.0901 40.1631C89.1493 40.2176 89.2537 40.2445 89.402 40.2445C89.5425 40.2445 89.7008 40.1992 89.8751 40.107C90.0495 40.0156 90.2239 39.8981 90.399 39.7544C90.5734 39.6108 90.7347 39.4572 90.8837 39.2943C90.906 39.2398 90.926 39.1845 90.9452 39.1276C90.9636 39.0708 90.9805 39.0124 90.9951 38.9533C91.0174 38.8841 91.0711 38.8035 91.1564 38.7121C91.2417 38.6207 91.3776 38.5746 91.5627 38.5746C91.5996 38.5746 91.6365 38.5761 91.6741 38.5784C91.711 38.5807 91.7517 38.5869 91.7963 38.5969C91.7963 38.676 91.7609 38.8235 91.6902 39.0385C91.6196 39.2536 91.519 39.5056 91.3891 39.7921C91.2593 40.0794 91.1049 40.3736 90.9267 40.6754C91.2755 40.5863 91.6173 40.4388 91.9514 40.2338C92.2856 40.0287 92.5567 39.7544 92.7641 39.4134L92.9085 39.4879C92.7971 39.7253 92.6281 39.9319 92.4015 40.1078C92.1749 40.2837 91.9207 40.4342 91.6388 40.561C91.3569 40.687 91.078 40.7922 90.803 40.8767C90.6102 41.1932 90.4006 41.4904 90.174 41.7677C89.9474 42.045 89.71 42.2693 89.4611 42.4398C89.2138 42.6096 88.9595 42.6949 88.6999 42.6949ZM88.6438 42.4567C88.7552 42.4567 88.9426 42.3592 89.2061 42.1633C89.4696 41.9674 89.7499 41.6248 90.0472 41.1348C89.743 41.2439 89.4604 41.3514 89.2007 41.4582C88.9411 41.5642 88.7329 41.6794 88.577 41.8038C88.4211 41.9275 88.3435 42.0711 88.3435 42.2347C88.3435 42.2747 88.3658 42.3215 88.4103 42.3761C88.4549 42.4299 88.5324 42.4567 88.6438 42.4567Z" fill="#3C4242"/>
<path d="M92.9984 40.69C92.9016 40.69 92.8187 40.6739 92.748 40.6416C92.6773 40.6094 92.642 40.5587 92.642 40.4895C92.642 40.435 92.675 40.3843 92.7418 40.3375C92.8087 40.2906 92.8924 40.253 92.9922 40.2261C93.0921 40.1992 93.1904 40.1854 93.2872 40.1854C93.3763 40.1854 93.447 40.1977 93.4985 40.2222C93.5499 40.2468 93.576 40.2944 93.576 40.3636C93.576 40.4135 93.5484 40.4627 93.4923 40.5118C93.4362 40.561 93.364 40.6032 93.2749 40.6378C93.1858 40.6724 93.0952 40.69 92.9984 40.69Z" fill="#3C4242"/>
</g>
<defs>
<filter id="filter0_d_307_1509" x="0.432755" y="0" width="99.9284" height="53" filterUnits="userSpaceOnUse" color-interpolation-filters="sRGB">
<feFlood flood-opacity="0" result="BackgroundImageFix"/>
<feColorMatrix in="SourceAlpha" type="matrix" values="0 0 0 0 0 0 0 0 0 0 0 0 0 0 0 0 0 0 127 0" result="hardAlpha"/>
<feOffset dy="4"/>
<feGaussianBlur stdDeviation="2"/>
<feComposite in2="hardAlpha" operator="out"/>
<feColorMatrix type="matrix" values="0 0 0 0 0 0 0 0 0 0 0 0 0 0 0 0 0 0 0.25 0"/>
<feBlend mode="normal" in2="BackgroundImageFix" result="effect1_dropShadow_307_1509"/>
<feBlend mode="normal" in="SourceGraphic" in2="effect1_dropShadow_307_1509" result="shape"/>
</filter>
</defs>
</svg>
